<?xml version="1.0" standalone="no"?>
<!DOCTYPE svg PUBLIC "-//W3C//DTD SVG 20010904//EN"
 "http://www.w3.org/TR/2001/REC-SVG-20010904/DTD/svg10.dtd">
<svg version="1.0" xmlns="http://www.w3.org/2000/svg"
 width="1000.000000pt" height="1000.000000pt" viewBox="0 0 1000.000000 1000.000000"
 preserveAspectRatio="xMidYMid meet">
<metadata>
Created by potrace 1.16, written by Peter Selinger 2001-2019
</metadata>
<g transform="translate(0.000000,1000.000000) scale(0.100000,-0.100000)"
fill="#000000" stroke="none">
<path d="M0 5000 l0 -5000 5000 0 5000 0 0 5000 0 5000 -5000 0 -5000 0 0
-5000z m5639 4044 c2 -2 -7 -4 -22 -4 -31 0 -155 -44 -171 -60 -6 -7 2 -6 19
3 17 8 46 17 65 21 30 5 26 2 -25 -24 -33 -16 -76 -44 -95 -61 -19 -18 -24
-24 -10 -15 73 47 108 65 135 71 26 6 25 3 -15 -21 -65 -39 -77 -51 -132 -129
-53 -76 -54 -78 -16 -162 l21 -48 7 30 8 30 1 -35 c0 -20 7 -42 14 -50 6 -8
-4 -2 -23 12 -85 62 -115 199 -66 303 36 79 98 127 191 148 20 5 106 -2 114
-9z m121 -71 l25 -28 -25 19 c-14 11 -8 4 12 -16 41 -40 53 -80 52 -173 0 -72
-26 -127 -80 -175 -70 -61 -115 -69 -213 -38 -49 15 -17 30 40 19 l44 -9 -35
-2 c-35 -2 -35 -2 10 -11 42 -8 47 -7 72 21 16 16 23 25 16 20 -7 -6 -16 -10
-22 -10 -5 0 9 13 31 29 56 40 83 100 83 183 0 80 -6 98 -32 98 -14 0 -18 -5
-14 -15 3 -8 2 -14 -2 -12 -4 1 -23 -10 -42 -25 -19 -15 -66 -34 -103 -44 -38
-9 -81 -27 -96 -40 -16 -13 -32 -19 -40 -15 -18 11 29 65 71 81 84 33 137 60
167 86 28 23 32 33 29 65 -4 43 9 41 52 -8z m1840 -296 c0 -31 -58 -68 -143
-90 -52 -14 -57 -14 -57 1 -1 10 -7 28 -14 41 -12 22 -13 20 -9 -25 l5 -50
-93 -36 -94 -36 -6 29 c-4 16 -12 36 -19 44 -7 9 -11 18 -8 20 15 15 217 81
293 95 115 22 145 24 145 7z m-554 -23 c-4 -12 -1 -14 14 -9 24 8 77 -42 61
-58 -7 -7 -3 -14 11 -21 26 -13 47 -81 30 -98 -10 -10 -84 -30 -90 -24 -1 2 2
14 8 28 10 20 7 34 -15 83 -14 33 -33 67 -41 77 -18 19 -11 38 13 38 10 0 13
-6 9 -16z m-38 -39 c11 -13 25 -38 32 -55 17 -41 -4 -89 -53 -117 l-34 -21
-24 51 c-13 29 -25 54 -27 57 -1 3 14 14 33 24 46 25 38 32 -9 9 -36 -16 -37
-16 -58 4 l-21 21 49 26 c62 32 88 32 112 1z m-2592 -55 c129 -29 294 -116
390 -206 38 -35 102 -114 93 -114 -2 0 -37 31 -76 70 -69 66 -98 83 -255 154
-20 9 -45 16 -57 16 -19 0 -19 -2 9 -43 29 -43 100 -189 100 -206 0 -5 -13
-11 -29 -13 -28 -4 -30 -1 -61 74 -18 43 -34 77 -36 75 -3 -2 3 -21 12 -43 25
-58 33 -90 25 -101 -3 -6 -48 -22 -100 -37 -52 -15 -126 -40 -164 -56 -39 -16
-75 -27 -80 -23 -6 3 -7 1 -4 -4 4 -6 -5 -15 -21 -21 -59 -20 -293 -183 -374
-260 -20 -19 -43 -32 -51 -29 -43 16 -137 272 -137 374 0 47 5 61 38 106 117
158 298 266 497 297 69 10 212 5 281 -10z m2448 -2 c8 -13 5 -21 -17 -38 -36
-29 -35 -47 2 -21 16 12 32 21 35 21 3 0 17 -22 30 -50 17 -36 21 -52 12 -58
-14 -11 -86 -35 -91 -30 -2 1 -24 33 -48 69 l-45 66 41 32 c44 34 64 36 81 9z
m-125 -85 c54 -63 105 -164 96 -192 -7 -23 -36 -45 -72 -56 -20 -5 -26 0 -46
47 -13 29 -34 62 -46 72 -29 26 -27 7 4 -35 38 -53 52 -88 65 -169 17 -108 4
-142 -73 -184 -31 -17 -65 -42 -74 -56 -20 -29 -34 -41 -85 -75 -45 -30 -52
-31 -45 -5 3 11 1 23 -4 26 -5 3 -10 22 -10 42 l-2 37 -6 -40 -6 -40 -12 30
c-7 17 -29 75 -49 130 -39 108 -73 180 -80 172 -2 -2 12 -39 32 -82 21 -42 38
-93 39 -111 1 -19 5 -38 9 -41 3 -3 6 -16 5 -27 -1 -18 -2 -18 -9 4 -6 17 -9
-3 -10 -65 l-3 -90 -7 91 c-9 106 -33 195 -57 215 -15 12 -16 12 -9 -6 4 -10
9 -40 12 -65 l5 -45 -25 50 c-13 28 -25 47 -25 43 -1 -3 10 -48 23 -100 26
-99 40 -222 25 -212 -5 3 -9 0 -9 -5 0 -19 28 -12 44 11 9 12 16 17 16 11 0
-6 -7 -16 -15 -23 -8 -7 -13 -16 -10 -20 2 -4 -6 -5 -19 -3 -18 4 -25 -1 -30
-19 -6 -21 -7 -21 -17 -5 -6 9 -14 15 -20 12 -5 -3 -6 0 -3 8 3 8 0 18 -7 22
-8 6 -10 -2 -7 -29 2 -20 0 -36 -4 -36 -4 0 -8 26 -8 58 l0 57 27 -44 c23 -39
27 -42 34 -25 22 56 -4 181 -62 296 -35 69 -56 87 -28 23 11 -25 22 -69 25
-98 l6 -52 -29 46 c-72 116 -98 130 -64 35 11 -31 18 -56 15 -56 -2 0 -17 26
-34 58 -33 61 -32 53 7 -48 41 -103 71 -217 66 -247 -4 -22 -2 -25 6 -13 6 8
11 11 12 5 0 -5 2 -23 4 -38 7 -50 -18 -24 -35 39 -28 96 -162 374 -182 374
-4 0 3 -18 18 -39 36 -56 110 -238 124 -307 17 -87 20 -94 38 -94 12 -1 10 -5
-8 -15 -14 -7 -48 -40 -76 -72 -55 -63 -151 -124 -158 -101 -34 115 -95 286
-119 330 -16 32 -45 72 -64 90 -19 18 -41 45 -49 60 -8 15 -28 43 -44 62 l-30
33 78 45 c89 53 183 74 240 54 29 -10 30 17 2 37 -21 14 -20 15 9 40 17 14 48
28 70 32 22 4 55 17 73 31 18 13 43 30 54 39 25 18 64 8 102 -27 18 -18 22
-19 22 -5 0 18 -46 57 -69 57 -33 1 35 27 88 34 40 5 66 17 105 45 61 46 128
81 154 81 11 0 37 -7 58 -15 l39 -15 -33 29 -33 29 52 26 c29 14 58 26 65 26
7 0 31 -21 53 -47z m690 -2 c11 -7 10 -12 -6 -28 -38 -38 -90 -70 -144 -90
l-57 -20 -12 41 c-7 23 -16 46 -22 53 -11 13 5 18 77 27 22 2 56 9 75 14 45
13 72 14 89 3z m-249 -67 c6 -14 10 -43 10 -64 0 -38 -1 -39 -55 -59 -31 -12
-62 -21 -70 -21 -22 0 -28 20 -8 26 39 12 125 55 120 60 -5 5 -63 -11 -123
-33 -10 -4 -27 45 -28 82 -1 9 83 31 127 34 10 1 22 -10 27 -25z m-2092 -178
c34 -17 73 -87 101 -180 26 -85 26 -108 1 -131 -20 -18 -20 -17 -20 31 0 34
-9 64 -28 99 -26 48 -29 50 -70 50 -43 0 -43 1 -77 63 -22 41 -29 64 -22 67 7
2 19 6 27 8 28 10 61 7 88 -7z m208 -62 c19 -29 34 -58 34 -63 0 -6 -22 -22
-50 -36 -64 -32 -65 -39 -1 -13 27 12 55 18 63 15 8 -3 25 -38 38 -77 19 -60
21 -73 9 -81 -22 -14 -25 -11 -38 31 -6 22 -16 40 -21 40 -6 0 -10 -4 -10 -8
0 -5 -7 -17 -16 -28 -16 -20 -16 -13 2 31 5 11 -1 15 -19 15 -14 0 -29 -5 -33
-12 -4 -6 -21 31 -39 86 -18 53 -40 105 -49 115 -19 21 -13 28 32 40 43 12 62
1 98 -55z m-356 31 c6 -3 22 -29 36 -57 21 -41 23 -50 9 -44 -9 3 -63 6 -119
6 l-102 0 -24 48 c-14 26 -26 50 -28 55 -4 9 212 2 228 -8z m-220 -36 c12 -23
19 -47 17 -53 -3 -8 -32 -16 -69 -19 -34 -3 -98 -15 -140 -26 -72 -19 -260
-88 -300 -111 -14 -8 -23 -1 -48 35 l-30 44 27 14 c131 68 399 154 485 156 34
1 39 -3 58 -40z m-1130 -30 c0 -65 51 -218 99 -299 l38 -63 -61 -81 c-34 -44
-84 -116 -111 -159 l-49 -78 -14 48 c-13 46 -12 104 3 148 4 13 1 11 -9 -5
-13 -23 -15 -23 -22 -6 -13 34 5 239 29 336 25 97 72 210 88 210 5 0 9 -23 9
-51z m1136 -74 c-11 -8 -33 -15 -48 -15 -91 0 -269 -55 -433 -135 -104 -50
-279 -161 -305 -194 -3 -4 -39 -38 -80 -77 -41 -39 -77 -74 -79 -80 -2 -5 -23
-37 -47 -70 -47 -65 -64 -101 -99 -202 -20 -59 -22 -62 -32 -39 -9 20 -6 37
22 100 37 84 52 108 136 212 57 71 119 128 239 221 180 140 464 259 685 287
59 8 61 7 41 -8z m-569 -52 c7 -10 20 -30 28 -44 14 -26 14 -27 -48 -59 -95
-50 -214 -137 -304 -223 l-82 -79 -31 30 c-16 17 -30 36 -30 43 0 17 115 125
214 201 79 61 213 147 230 148 5 0 15 -8 23 -17z m799 6 c89 -16 89 -15 107
-72 62 -201 48 -486 -33 -663 -107 -236 -297 -390 -529 -429 -31 -5 -42 -4
-37 4 4 6 19 11 34 11 41 0 179 60 247 107 69 46 155 134 179 182 21 39 12 55
-11 20 -21 -31 -101 -109 -111 -109 -5 0 11 20 35 45 24 25 43 51 43 58 0 6
-15 -4 -33 -24 -55 -60 -84 -77 -34 -20 55 65 54 82 -3 25 -33 -33 -120 -93
-120 -82 0 2 25 21 55 43 61 44 73 65 23 39 -31 -16 -32 -16 -18 0 8 10 59 50
114 88 54 39 116 88 136 109 46 48 68 95 51 112 -6 6 -11 23 -11 37 0 31 -17
50 -44 50 -18 0 -18 1 -3 18 22 25 21 55 -2 76 -17 16 -29 16 -123 6 -56 -6
-134 -14 -173 -18 -70 -7 -115 -24 -115 -42 0 -5 -18 -21 -40 -35 -23 -14 -46
-37 -52 -51 -6 -14 -47 -49 -90 -80 -42 -30 -84 -67 -92 -83 -9 -16 -27 -32
-43 -35 -14 -4 -56 -37 -92 -74 -36 -37 -53 -51 -38 -32 110 140 115 159 16
57 -72 -73 -80 -66 -14 13 83 100 70 114 -18 20 -37 -38 -69 -70 -72 -70 -2 0
27 39 65 87 39 48 70 92 70 98 0 5 -36 -26 -80 -71 -43 -44 -81 -75 -84 -69
-2 6 29 49 70 95 41 47 74 88 74 93 0 5 -37 -25 -82 -67 -46 -41 -84 -73 -86
-71 -6 6 96 127 136 162 20 18 31 33 25 33 -7 0 -48 -34 -90 -75 -43 -41 -79
-75 -80 -75 -2 0 -3 9 -3 19 0 18 84 120 157 189 19 19 32 36 30 39 -6 5 -183
-152 -190 -170 -3 -6 -6 -2 -6 11 -1 15 29 52 99 122 55 55 100 103 100 106 0
10 -54 -33 -128 -101 -40 -37 -72 -62 -72 -55 0 19 101 129 155 168 27 19 52
37 54 39 2 2 2 6 -2 9 -8 8 -91 -50 -150 -105 -29 -27 -45 -37 -41 -25 11 31
64 82 133 126 74 49 66 63 -11 21 -144 -77 -344 -323 -397 -486 l-22 -68 22
-36 c12 -20 57 -61 100 -93 77 -56 78 -57 54 -68 -23 -11 -31 -7 -97 54 -39
36 -85 84 -101 106 -27 38 -28 43 -17 87 13 53 75 181 118 243 87 126 278 284
465 383 97 52 289 117 397 135 41 6 82 13 90 15 38 7 182 4 236 -6z m652 -61
c13 -13 33 -38 44 -58 12 -19 41 -56 64 -81 76 -83 143 -250 159 -395 6 -57 5
-63 -16 -78 -23 -16 -24 -15 -36 27 -12 40 -12 43 12 60 33 25 32 39 -2 26
-30 -11 -53 -6 -53 13 0 9 3 8 10 -2 6 -9 10 -10 10 -3 0 7 -6 16 -12 20 -7 4
-29 41 -48 81 -43 92 -70 118 -30 29 32 -71 80 -248 80 -297 0 -39 -12 -63
-43 -83 l-25 -16 9 37 c5 20 8 60 7 87 l-1 50 -10 -62 c-5 -35 -14 -63 -18
-63 -5 0 -9 -5 -9 -11 0 -5 5 -7 12 -3 7 4 8 3 4 -4 -17 -28 -26 -7 -26 62 0
87 -18 173 -65 310 -51 146 -74 152 -41 11 8 -33 17 -89 21 -125 l6 -65 -24
70 c-13 39 -31 84 -41 100 l-17 30 6 -30 c41 -193 48 -412 15 -505 -26 -75
-26 -76 20 -39 22 18 40 39 40 46 0 8 4 12 9 8 5 -3 12 -1 16 5 3 5 1 10 -4
10 -12 0 -13 50 -1 95 6 24 8 18 6 -25 0 -30 4 -56 9 -57 6 0 9 2 8 5 -1 4 -3
14 -6 22 -2 8 -2 12 0 7 3 -4 10 -4 16 0 6 4 8 0 4 -10 -3 -9 -2 -17 3 -19 5
-2 -25 -32 -67 -68 -93 -80 -108 -95 -144 -144 -16 -21 -29 -36 -29 -32 0 4
14 27 31 51 33 46 39 76 59 308 9 105 3 185 -19 237 l-10 25 -1 -30 c-1 -20
-8 -2 -21 50 -23 95 -28 110 -34 103 -3 -3 1 -34 10 -69 8 -35 14 -77 14 -94
-1 -18 -6 -4 -14 35 -7 36 -18 76 -24 90 l-12 25 6 -25 c12 -57 36 -242 32
-253 -2 -7 -7 14 -11 46 -13 99 -55 290 -67 301 -9 8 -10 4 -5 -14 16 -55 28
-181 22 -215 -4 -21 -9 -35 -11 -33 -3 2 -16 47 -29 99 -14 52 -38 131 -55
177 -17 46 -31 89 -31 95 0 7 15 21 33 31 147 87 161 90 221 50 34 -23 37 -24
27 -5 -15 28 -51 51 -79 51 -22 0 -23 2 -11 17 38 46 114 51 157 11z m-1894
-335 l29 -32 -30 -34 c-36 -41 -133 -210 -133 -232 0 -29 -15 -14 -37 36 l-22
50 38 82 c38 81 111 183 121 169 3 -4 18 -21 34 -39z m1476 -3 c0 -11 9 -25
20 -32 20 -13 20 -13 -2 -31 -21 -17 -21 -18 -3 -12 11 4 25 9 30 11 15 6 42
-44 49 -91 6 -37 5 -41 -24 -59 -38 -22 -32 -32 10 -17 29 10 33 9 38 -12 6
-19 7 -17 12 12 3 19 10 36 15 38 15 5 37 -105 26 -126 -9 -16 -119 -87 -125
-80 -1 2 -13 51 -25 109 -12 58 -34 145 -49 194 -25 86 -25 89 -7 102 26 19
35 18 35 -6z m-376 -49 c15 -26 16 -37 8 -57 -7 -13 -20 -24 -29 -24 -10 0
-33 -9 -52 -21 l-33 -20 -20 20 c-28 30 -43 26 -19 -5 12 -15 21 -35 21 -46 0
-11 4 -17 9 -14 11 7 30 -15 34 -40 1 -11 12 -33 24 -50 38 -53 39 -78 4 -103
-16 -12 -32 -29 -35 -39 -3 -9 -20 -25 -37 -35 l-31 -17 4 25 c9 46 -16 22
-57 -57 -30 -57 -60 -80 -94 -71 -14 3 -30 9 -35 14 -5 4 1 5 13 2 27 -7 69
21 82 55 7 19 12 23 18 13 6 -10 10 -9 14 4 4 9 3 14 -2 10 -5 -3 -11 1 -14 7
-3 10 -10 8 -26 -6 -11 -11 -23 -17 -26 -14 -3 2 35 47 85 99 49 52 90 98 90
102 0 5 -9 6 -19 2 -26 -8 -54 31 -41 56 15 26 12 31 -9 19 -16 -8 -23 -5 -42
21 -21 30 -21 32 -5 60 18 31 16 35 -14 19 -13 -7 -26 -6 -45 4 l-27 14 27 18
c25 16 28 16 61 0 l35 -16 72 54 c40 30 76 53 82 52 5 -1 18 -17 29 -35z m196
-65 c0 -28 -116 -116 -152 -116 -8 0 -31 -9 -53 -20 -47 -24 -45 -24 -45 -7 0
8 -9 22 -20 32 -20 18 -20 18 10 46 47 45 120 37 120 -13 0 -10 5 -18 10 -18
14 0 12 13 -5 36 -19 25 -19 34 3 34 9 0 35 9 57 19 48 23 75 26 75 7z m-420
-120 c69 -94 67 -109 -17 -185 -38 -34 -79 -64 -92 -68 -45 -11 -119 56 -146
133 -15 45 -7 68 37 103 l29 24 29 -28 c24 -23 27 -31 18 -48 -9 -17 -8 -19
10 -15 23 6 62 -28 66 -58 2 -10 8 -20 14 -22 22 -7 12 23 -19 61 -32 39 -31
49 9 81 37 30 17 31 -22 1 l-36 -27 -30 31 -31 30 52 35 c33 22 58 32 66 28 7
-5 36 -39 63 -76z m440 55 c0 -19 -96 -114 -152 -152 -33 -21 -61 -39 -64 -39
-2 0 -4 8 -4 18 0 11 -9 27 -19 36 -19 17 -18 19 36 47 67 35 71 35 79 4 3
-14 10 -25 15 -25 5 0 3 13 -5 28 -16 31 -14 34 64 74 38 20 50 22 50 9z
m-1531 -133 c-47 -44 -40 -72 42 -167 40 -45 74 -79 77 -76 3 3 -8 20 -25 38
-57 61 -75 94 -63 117 13 25 19 25 37 3 13 -16 13 -16 8 7 -4 14 11 -3 33 -38
22 -35 50 -74 62 -87 l23 -24 -32 -31 c-17 -18 -35 -30 -40 -28 -18 6 -135
143 -172 201 -51 79 -52 113 -2 168 l37 41 22 -49 21 -48 -28 -27z m1694 -25
c8 -39 11 -76 8 -82 -7 -11 -198 -129 -265 -163 -38 -19 -40 -20 -26 -2 43 58
70 78 70 55 0 -5 -8 -12 -17 -14 -14 -4 -15 -5 -2 -6 26 -2 92 100 130 203
l19 51 -5 -53 c-3 -29 -8 -60 -11 -70 -3 -9 2 -4 11 11 9 16 20 56 24 90 l8
62 2 -70 c2 -58 4 -66 12 -45 6 14 11 46 12 72 3 61 12 49 30 -39z m-1803 -14
c0 -9 23 -47 51 -84 l50 -67 -34 -52 c-19 -29 -44 -71 -57 -95 -12 -24 -25
-39 -29 -35 -4 5 -17 34 -28 65 -21 55 -21 57 -4 85 10 16 30 42 45 58 15 15
25 30 23 33 -3 2 -23 -17 -46 -43 -23 -26 -44 -44 -48 -40 -10 10 -33 78 -33
99 0 27 91 121 102 105 4 -7 8 -20 8 -29z m960 -139 c12 -25 31 -56 41 -69 26
-32 24 -69 -6 -113 -29 -43 -56 -61 -80 -52 -18 7 -93 110 -124 172 -33 66
-31 106 10 148 19 20 50 44 69 54 l35 18 16 -57 c8 -31 26 -76 39 -101z m1060
134 c6 -14 10 -62 10 -108 0 -73 -3 -85 -22 -103 -32 -29 -58 -41 -97 -45
l-34 -3 -18 70 c-10 39 -19 77 -19 86 0 9 26 32 58 52 32 19 66 45 76 56 25
27 34 26 46 -5z m-175 -261 c-2 -7 -13 -13 -23 -13 -10 0 -45 -16 -78 -36 -32
-20 -76 -42 -96 -49 l-38 -13 -24 54 c-29 64 -41 71 -21 13 22 -62 20 -79 -11
-79 -14 0 -38 -8 -52 -19 -53 -37 -68 -36 -93 8 -28 51 -34 47 -14 -9 8 -24
14 -45 12 -47 -10 -10 -265 -106 -280 -105 -9 0 -15 -3 -12 -8 5 -8 -18 -20
-38 -19 -7 0 -3 5 8 10 20 9 -68 4 -125 -7 -19 -4 -22 -2 -10 6 11 7 11 10 2
10 -7 0 -15 -6 -18 -14 -3 -8 -13 -17 -21 -20 -11 -4 -8 4 9 26 20 26 57 46
169 94 124 52 355 165 454 222 29 16 207 121 250 147 19 12 21 8 37 -64 10
-42 15 -82 13 -88z m-1095 111 c0 -60 104 -210 184 -265 39 -26 46 -53 20 -85
-15 -18 -15 -18 -5 3 18 36 13 48 -10 27 -22 -19 -22 -19 -10 4 6 12 9 22 6
22 -6 0 -107 -66 -117 -77 -4 -5 -23 -26 -44 -48 -20 -22 -27 -27 -15 -11 21
29 19 51 -4 42 -7 -2 -21 2 -32 10 -16 12 -16 13 0 8 34 -12 17 20 -40 75
l-58 56 -3 -64 c-3 -62 -3 -63 -23 -45 -10 9 -22 14 -25 11 -13 -12 19 -67 58
-103 33 -29 45 -35 73 -31 l34 5 -27 -53 c-29 -57 -36 -59 -93 -29 l-33 17 18
-29 c10 -16 28 -40 40 -53 11 -13 -10 0 -48 30 -38 29 -89 81 -114 114 -58 80
-62 81 -22 10 45 -82 78 -121 128 -155 24 -15 39 -31 34 -34 -8 -5 -42 -94
-42 -111 0 -3 5 -3 12 1 7 4 8 3 4 -5 -4 -6 -11 -9 -16 -6 -8 5 -46 -45 -42
-57 1 -5 -4 -7 -11 -5 -6 1 -11 -6 -11 -15 1 -10 -3 -16 -10 -15 -6 1 -10 -4
-8 -11 1 -8 -2 -11 -8 -7 -10 6 19 57 41 70 10 7 59 99 59 112 0 4 -16 -9 -36
-27 l-35 -35 7 43 c8 51 1 54 -22 7 -9 -20 -36 -52 -59 -73 -23 -20 -54 -55
-69 -76 -30 -44 -36 -92 -10 -82 11 4 18 -1 21 -14 3 -11 9 -20 12 -20 10 0
46 41 60 68 7 12 17 20 23 16 7 -5 5 -11 -6 -20 -11 -8 -15 -18 -10 -26 4 -7
3 -10 -1 -5 -5 4 -23 -7 -41 -24 l-32 -31 -62 32 c-64 32 -93 30 -64 -6 8 -10
12 -13 9 -6 -4 8 16 -2 45 -22 29 -20 61 -36 73 -36 19 0 19 -1 3 -19 -10 -11
-32 -23 -48 -27 -17 -3 -49 -15 -72 -25 -33 -15 -65 -19 -162 -19 -124 0 -134
3 -164 45 -11 15 -7 13 13 -5 24 -21 30 -22 38 -10 9 13 10 12 6 -1 -5 -15 8
-17 109 -18 95 -2 122 1 160 19 26 11 50 20 55 20 4 0 20 5 36 11 l27 10 -39
24 c-22 13 -48 29 -57 35 -12 7 -18 7 -18 0 0 -17 -17 -12 -60 18 -33 22 -51
47 -96 141 -30 62 -57 111 -60 108 -3 -2 1 -34 9 -71 7 -36 12 -66 11 -66 -2
0 -13 19 -25 41 -30 59 -46 39 -31 -37 17 -82 57 -162 99 -199 25 -21 31 -32
20 -32 -9 0 -14 4 -11 9 3 4 -32 8 -78 8 -84 0 -84 0 -120 38 -50 52 -58 71
-69 172 -11 99 -2 176 32 264 25 67 40 85 78 96 35 10 35 7 -10 -50 -15 -20
-35 -64 -44 -99 -18 -70 -15 -110 4 -46 6 22 20 56 31 75 22 38 22 40 0 -68
-5 -29 -10 -70 -9 -90 l1 -37 8 30 c5 17 18 70 29 119 12 48 35 122 52 163 27
64 40 82 97 128 35 30 94 70 131 89 36 19 82 51 101 71 19 20 65 52 102 71 37
18 95 59 130 90 91 81 148 104 148 58z m-648 -79 l-21 -35 44 0 c25 0 45 -4
45 -8 0 -5 -15 -34 -34 -65 -19 -31 -33 -58 -30 -58 6 -2 23 -6 32 -8 4 -1 15
-8 25 -16 18 -13 14 -19 -60 -104 l-78 -91 -62 6 c-100 10 -135 -28 -103 -112
16 -41 2 -42 -15 -1 -31 75 -13 126 59 157 38 17 39 19 14 19 -35 1 -35 8 -2
52 14 19 41 65 60 103 38 74 133 210 141 202 3 -3 -4 -21 -15 -41z m2149 -209
l29 -89 -31 -56 c-44 -77 -68 -107 -73 -90 -2 8 -12 43 -21 79 -22 86 -55 183
-66 194 -4 5 14 34 42 64 27 31 49 61 50 66 1 18 39 -74 70 -168z m-483 48
c33 -23 52 -67 52 -120 0 -26 7 -70 14 -98 8 -28 27 -117 42 -198 23 -122 25
-150 14 -163 -7 -8 -15 -13 -18 -10 -3 3 -15 -3 -26 -14 -12 -10 -42 -28 -67
-38 l-46 -20 -12 71 c-6 39 -14 81 -17 93 -5 18 0 25 30 40 60 28 36 45 -26
18 -12 -5 -18 -3 -18 6 0 8 -6 47 -14 87 l-14 72 42 19 c24 11 33 20 23 20
-10 1 -28 -4 -39 -10 -16 -9 -24 -8 -36 5 -14 13 -13 16 9 25 13 6 43 15 65
21 23 5 48 18 55 27 12 14 11 15 -6 10 -11 -3 -47 -13 -80 -23 -33 -9 -147
-54 -254 -100 -192 -83 -291 -119 -291 -106 0 4 69 38 153 77 186 85 278 136
274 149 -9 29 -67 15 -212 -53 -83 -38 -169 -76 -193 -84 -42 -15 -43 -14 -51
6 -27 75 -35 67 132 136 84 35 184 81 224 102 40 22 85 39 100 40 15 0 44 7
63 14 48 18 101 18 128 -1z m548 -367 c-5 -25 -86 -160 -92 -154 -1 1 -12 49
-23 106 l-21 103 30 34 c16 19 40 54 51 77 l22 42 19 -90 c10 -49 16 -103 14
-118z m-346 -94 c1 -54 -19 -24 -41 63 -13 52 -25 90 -27 85 -2 -6 6 -48 17
-93 23 -90 26 -117 12 -102 -8 8 -54 186 -68 267 -8 41 12 33 24 -10 l11 -38
-5 38 c-3 23 0 43 8 53 11 14 17 -2 41 -112 15 -71 27 -139 28 -151z m-898
230 c21 -25 48 -112 45 -147 -3 -39 -23 -44 -30 -9 -9 41 -43 92 -71 104 -41
19 -95 2 -143 -45 -24 -24 -41 -45 -39 -47 3 -2 -13 -14 -35 -26 l-39 -21 44
42 c24 24 50 60 57 81 11 31 24 43 64 61 60 29 126 31 147 7z m-68 -77 c26
-11 38 -25 51 -60 13 -33 15 -50 7 -58 -12 -12 -32 -2 -32 17 0 8 -13 21 -29
29 -27 14 -31 14 -56 -6 -22 -17 -26 -27 -23 -61 3 -45 -11 -57 -36 -32 -21
21 -21 94 0 124 13 18 70 61 82 61 1 0 18 -6 36 -14z m474 -8 c-2 -17 -18 -28
-66 -46 -35 -13 -61 -26 -59 -28 2 -2 32 7 67 21 73 29 72 29 90 -54 21 -98
19 -100 -100 -139 -58 -20 -100 -37 -95 -39 6 -1 56 12 112 31 l103 33 4 -31
c3 -17 10 -60 15 -95 6 -36 10 -66 8 -67 -9 -9 -272 -104 -294 -106 -26 -3
-27 -2 -74 163 -26 92 -50 184 -53 205 l-7 39 73 23 c40 12 114 42 163 67 105
51 118 53 113 23z m-359 -189 c13 -58 98 -356 106 -369 10 -16 -57 -59 -147
-94 -51 -20 -165 -60 -253 -90 -175 -60 -175 -60 -193 4 -6 19 -26 88 -46 153
-48 160 -52 197 -29 225 10 12 69 41 133 65 323 124 386 149 394 157 15 15 24
2 35 -51z m1210 -13 c7 -41 10 -79 7 -85 -4 -6 -2 -11 3 -11 6 0 11 -19 10
-42 l-1 -43 -12 37 c-6 20 -15 40 -20 45 -5 5 -7 1 -4 -8 4 -9 -2 -33 -12 -55
-10 -21 -19 -34 -19 -28 -1 5 -8 19 -16 30 -15 17 -15 16 -1 -12 14 -28 13
-33 -5 -63 -18 -29 -39 -35 -39 -9 0 23 -33 78 -51 83 -19 6 -19 7 3 38 12 18
23 34 25 37 2 2 15 -9 29 -25 l26 -30 -21 32 -21 32 47 75 c27 41 50 75 54 75
3 1 11 -32 18 -73z m-327 -22 c-2 -16 -13 -55 -24 -87 -20 -60 -18 -90 3 -44
16 34 23 28 44 -35 l17 -53 -64 -60 c-59 -56 -226 -161 -237 -149 -3 2 20 30
51 62 58 59 118 138 118 154 0 6 -18 -12 -39 -39 -102 -125 -179 -192 -271
-238 -30 -15 -62 -33 -70 -40 -14 -11 -72 -35 -205 -86 l-50 -19 30 25 c17 14
55 45 85 68 129 99 126 122 -5 31 -87 -60 -135 -85 -90 -46 40 34 118 122 113
128 -3 3 -56 -40 -117 -95 -61 -56 -113 -101 -115 -101 -3 0 1 18 9 39 15 42
6 103 -17 117 -7 4 17 13 52 20 64 14 80 12 80 -9 0 -9 -2 -9 -8 -1 -8 12 -72
7 -72 -6 0 -5 -9 -6 -20 -3 -16 4 -19 2 -14 -11 3 -9 10 -16 14 -16 5 0 6 -10
3 -22 -5 -23 -5 -23 10 -3 12 15 19 17 27 9 9 -9 9 -14 -1 -19 -8 -5 -10 -4
-5 3 4 7 2 12 -3 12 -10 0 -13 -7 -10 -26 0 -4 -5 -11 -13 -15 -7 -5 -8 -9 -2
-9 6 0 42 34 79 76 38 42 59 71 46 65 -12 -7 -25 -11 -27 -8 -3 2 10 10 28 18
18 7 75 53 126 102 99 95 139 113 55 24 -27 -29 -56 -64 -63 -77 -7 -14 32 21
86 78 55 56 103 102 107 102 4 0 5 -16 1 -35 -7 -40 7 -47 24 -12 7 14 11 16
11 7 1 -9 -19 -42 -44 -75 -25 -33 -45 -64 -45 -69 0 -5 28 19 61 55 41 42 54
52 39 29 -13 -19 -37 -50 -54 -69 -36 -40 -19 -32 42 18 55 46 128 141 159
209 16 35 34 57 50 63 14 5 30 22 36 38 11 29 54 63 72 57 6 -1 8 -16 7 -32z
m-2225 -40 c14 -37 -75 -236 -161 -359 -23 -33 -49 -76 -57 -95 -22 -48 -130
-192 -199 -265 -31 -33 -69 -76 -84 -95 -97 -121 -509 -538 -670 -679 -86 -75
-214 -151 -253 -151 -31 0 -33 2 -33 35 0 44 89 220 189 372 72 112 73 113 90
91 17 -21 16 -24 -56 -130 -72 -108 -88 -153 -58 -164 8 -4 27 2 42 11 46 31
274 257 351 350 41 50 99 115 128 145 113 117 417 487 501 610 17 25 36 63 42
85 9 34 8 42 -5 52 -13 9 -21 9 -38 -3 -13 -8 -26 -11 -30 -7 -4 5 -6 1 -4 -7
2 -9 -4 -14 -14 -14 -10 1 -16 -3 -15 -10 1 -6 -4 -10 -11 -8 -8 1 -11 -1 -8
-6 3 -5 -7 -21 -22 -35 -25 -23 -29 -24 -47 -11 -19 15 -18 17 35 64 30 27 58
46 64 43 5 -3 6 -1 3 5 -9 13 72 74 86 65 6 -3 7 -1 4 4 -9 14 19 37 34 27 7
-4 9 -3 5 4 -9 15 122 92 157 92 16 0 30 -7 34 -16z m2404 -154 c23 -44 89
-302 91 -351 0 -39 -23 -84 -53 -100 -14 -7 -25 -5 -43 6 -36 24 -37 37 -5 75
28 35 28 35 29 9 0 -14 -5 -30 -12 -37 -9 -9 -9 -12 0 -12 7 0 18 11 24 25 9
21 6 54 -17 173 -36 187 -36 188 -76 196 l-32 6 23 25 c31 33 49 29 71 -15z
m-17 -170 c27 -123 23 -151 -26 -199 -109 -110 -444 -285 -698 -365 -47 -14
-97 -30 -112 -35 -22 -7 -27 -5 -32 13 -7 26 -3 30 64 51 30 10 118 47 195 83
77 35 151 69 165 74 36 14 112 59 107 64 -2 2 -37 -11 -78 -29 -80 -37 -328
-122 -334 -115 -2 2 71 35 163 73 198 81 242 102 242 115 0 6 -31 -5 -68 -24
-77 -39 -376 -142 -437 -150 l-40 -6 30 15 c17 8 38 14 48 15 24 0 325 119
332 131 9 14 -2 11 -53 -15 -26 -13 -94 -38 -152 -56 -58 -17 -132 -40 -165
-50 -65 -20 -70 -18 -80 21 -6 23 -3 27 19 33 14 3 26 11 26 16 0 6 -13 4 -29
-4 -26 -14 -30 -14 -35 1 -9 22 -1 27 64 48 69 23 226 88 386 162 114 51 126
55 151 44 l28 -13 -45 -23 c-25 -13 -89 -43 -143 -66 -53 -23 -96 -44 -94 -46
5 -4 170 63 239 98 43 21 60 26 63 17 2 -7 16 -56 31 -108 14 -52 30 -99 35
-104 18 -20 8 27 -26 126 -20 56 -32 104 -28 108 5 4 37 27 73 53 36 25 92 70
125 100 68 63 63 65 89 -53z m-2989 85 c75 -20 210 -93 226 -122 10 -19 4 -32
-62 -120 l-74 -98 -65 3 c-83 4 -170 28 -170 47 0 8 7 30 16 48 64 134 -221
186 -393 72 -29 -20 -53 -31 -53 -26 0 19 89 99 151 136 35 21 89 46 119 56
71 23 224 25 305 4z m3214 -85 c7 -44 10 -92 6 -107 -10 -42 -43 -90 -77 -114
l-30 -22 6 31 c4 16 16 47 27 68 12 24 19 59 19 92 0 55 17 132 30 132 3 0 12
-36 19 -80z m-2085 -27 c5 -17 1 -23 -21 -31 l-28 -10 33 -1 c36 -1 45 -21 10
-22 -19 0 -17 -3 12 -17 32 -14 33 -16 12 -20 -26 -4 -20 -22 8 -22 28 0 33
-29 7 -41 -21 -9 -21 -9 0 -5 18 3 25 -6 47 -68 31 -85 31 -83 7 -96 -34 -18
-60 18 -108 145 -24 66 -50 139 -58 162 l-13 42 37 9 c40 10 46 7 55 -25z
m130 2 c23 -14 54 -26 69 -27 14 -1 23 -6 21 -10 -3 -4 -12 -4 -22 -1 -9 3 11
-16 45 -42 38 -30 68 -63 79 -86 9 -22 22 -39 28 -39 12 0 182 45 206 54 12 5
15 -2 16 -31 0 -21 7 -53 16 -70 19 -38 20 -37 -52 -18 -58 16 -98 19 -87 8
13 -13 152 -53 185 -53 17 0 32 -5 32 -11 0 -8 -23 -10 -70 -7 -59 3 -83 11
-166 53 -93 48 -134 61 -134 44 0 -4 14 -17 31 -29 16 -12 28 -24 25 -27 -3
-3 -19 5 -36 17 -17 12 -33 20 -35 18 -6 -6 123 -112 141 -116 26 -6 14 -22
-17 -22 -21 0 -40 9 -55 25 -15 16 -34 25 -54 25 -47 0 -91 23 -132 69 -41 44
-41 45 -32 115 l7 46 26 -16 c14 -9 38 -28 54 -42 15 -14 27 -21 27 -14 0 8
-63 67 -148 138 -6 4 -20 74 -15 74 2 0 24 -11 47 -25z m-1475 -25 c70 -20 98
-71 65 -118 -21 -30 -14 -64 16 -79 14 -7 66 -15 116 -19 l91 -7 -89 -110
c-89 -109 -112 -136 -199 -230 l-45 -49 -35 17 c-34 18 -115 81 -179 142 -35
33 -57 44 -44 21 29 -51 122 -163 152 -184 30 -21 32 -24 12 -19 -85 25 -168
93 -204 168 -14 29 -30 89 -37 135 -7 45 -16 82 -21 82 -19 0 -8 -176 16 -257
30 -105 62 -158 132 -222 l57 -52 -23 -24 c-13 -14 -28 -25 -33 -25 -5 0 -31
18 -58 41 -39 32 -59 61 -93 133 -60 127 -69 167 -64 288 7 134 28 199 88 258
92 93 265 143 379 110z m2119 -79 c2 -22 -3 -31 -18 -36 -11 -3 -28 -17 -39
-31 -22 -28 -47 -31 -81 -7 -18 12 -22 13 -14 3 6 -8 14 -37 17 -65 l5 -50
-19 24 c-26 32 -29 114 -5 139 11 12 114 49 141 51 6 1 12 -12 13 -28z m23
-61 c15 -9 59 -77 59 -93 0 -12 -62 -12 -71 0 -6 7 -15 13 -20 13 -9 0 4 -29
27 -60 6 -8 24 -45 39 -82 16 -37 30 -66 32 -64 3 2 -34 114 -52 159 -5 13 -2
17 14 17 12 0 21 -6 21 -15 0 -8 8 -15 18 -15 12 0 26 -23 49 -83 17 -45 34
-94 38 -109 5 -26 3 -28 -29 -28 -19 0 -41 -2 -48 -5 -10 -4 -18 7 -27 37 -7
24 -39 94 -72 155 -32 62 -59 118 -59 123 0 10 48 60 57 60 2 0 13 -5 24 -10z
m-1536 -121 c20 -87 19 -181 -5 -273 -29 -114 -36 -117 -32 -12 4 91 3 98 -25
148 -17 29 -33 72 -36 94 -6 37 -3 46 29 89 42 55 45 53 69 -46z m2585 21 c24
-46 24 -50 7 -50 -7 0 -51 -24 -98 -54 l-84 -54 -27 26 c-15 14 -31 23 -34 19
-3 -3 7 -17 22 -32 l29 -25 -30 -22 c-16 -12 -50 -42 -73 -66 l-44 -44 -39 17
c-21 10 -39 22 -39 26 0 17 126 135 165 154 22 11 58 30 80 44 22 13 36 18 30
10 -5 -8 1 -2 15 13 20 22 86 75 97 78 2 0 12 -18 23 -40z m-2653 -266 c20
-89 13 -125 -36 -202 -22 -33 -37 -62 -35 -65 7 -7 -111 -90 -171 -120 -75
-37 -156 -51 -259 -43 -49 4 -94 10 -99 13 -5 3 8 19 29 37 34 28 47 32 120
36 72 5 93 11 177 52 56 29 101 58 112 74 9 14 13 24 8 22 -179 -88 -189 -92
-242 -91 -64 2 -87 17 -47 33 15 5 34 10 42 10 20 0 165 57 187 74 15 12 6 13
-70 8 l-88 -5 45 50 c25 28 92 109 150 180 l105 131 28 -62 c16 -33 36 -93 44
-132z m1111 155 c36 -12 36 -11 19 -94 l-13 -60 -99 -6 c-66 -3 -93 -8 -78
-13 l21 -8 -19 -56 c-11 -30 -21 -94 -24 -141 l-5 -86 13 75 c7 41 24 105 37
143 l25 67 63 0 64 0 -7 -27 c-9 -37 -35 -170 -40 -208 -8 -62 -24 -118 -35
-125 -18 -11 -124 -22 -146 -14 -70 23 -74 26 -74 60 0 19 15 111 34 206 19
95 37 193 41 218 4 25 14 56 22 69 15 23 19 24 92 18 42 -3 91 -11 109 -18z
m1565 -17 c33 -36 84 -191 146 -437 11 -44 23 -87 26 -97 6 -14 -4 -17 -62
-23 -93 -8 -142 -22 -253 -68 -195 -82 -448 -255 -528 -360 l-24 -32 7 55 c7
64 39 202 55 244 17 46 20 25 5 -29 -20 -66 -54 -229 -50 -234 2 -2 12 14 23
35 10 22 23 38 29 37 6 -1 14 4 17 13 4 10 1 13 -7 9 -6 -4 1 5 16 19 15 14
25 26 21 26 -16 0 63 73 126 118 36 26 93 68 127 94 35 26 108 75 163 109 56
34 99 64 96 66 -2 3 -15 -2 -28 -11 -12 -8 -50 -27 -83 -41 l-60 -25 30 25
c17 14 49 38 73 52 24 14 41 28 38 31 -8 8 -159 -87 -236 -148 -84 -67 -184
-126 -171 -101 15 27 241 263 278 290 18 13 31 26 28 29 -6 7 -63 -33 -171
-120 l-88 -70 44 53 c24 30 80 94 125 143 112 125 55 82 -94 -70 -131 -134
-129 -128 12 66 38 52 86 113 106 134 l36 39 -36 -26 c-33 -25 -89 -85 -204
-217 -62 -71 -61 -71 -39 -32 10 19 30 45 44 60 14 14 19 22 11 17 -16 -9 73
106 139 181 79 91 241 214 280 214 9 0 24 -8 33 -18z m-1807 -24 c-3 -13 -13
-59 -22 -103 -8 -44 -24 -120 -34 -170 -11 -49 -22 -107 -26 -128 -9 -52 -28
-41 -32 19 -7 110 43 340 84 385 23 26 38 24 30 -3z m734 -8 c7 -17 11 -32 9
-33 -2 -2 -22 -9 -44 -16 -64 -22 -107 -42 -103 -47 3 -2 31 5 64 15 74 25 83
20 12 -7 -29 -10 -60 -22 -68 -26 -18 -7 97 4 118 12 10 3 13 1 9 -6 -4 -6
-30 -18 -57 -27 -71 -23 -62 -35 13 -18 91 22 92 22 92 -11 0 -28 -3 -30 -75
-48 -125 -30 -127 -30 -167 85 -19 54 -33 100 -30 103 5 5 184 52 203 53 6 1
17 -13 24 -29z m673 -45 c-30 -34 -51 -51 -57 -45 -6 6 -14 10 -20 10 -5 0 -2
-6 7 -12 15 -12 10 -23 -51 -114 -37 -56 -80 -128 -96 -162 -16 -34 -34 -58
-39 -55 -6 3 -7 1 -3 -6 4 -6 -10 -57 -32 -114 -22 -56 -46 -128 -53 -161 -12
-56 -31 -79 -49 -60 -16 16 45 265 82 337 5 10 16 16 24 13 11 -4 11 -2 3 12
-13 21 -5 41 80 177 67 109 130 179 191 210 25 13 49 24 53 25 5 0 -13 -25
-40 -55z m-884 -89 c17 -55 30 -100 28 -101 -1 -1 -38 -7 -82 -13 -109 -16
-208 -16 -203 1 3 6 15 13 29 15 27 4 171 51 179 59 3 3 -12 4 -32 1 -43 -5
-41 7 2 17 38 8 40 28 3 21 -16 -2 -46 -7 -68 -10 l-40 -5 35 14 35 13 -35 1
c-19 1 -50 -3 -68 -8 -36 -11 -36 -10 -22 40 l10 36 92 14 c51 8 96 12 100 9
3 -3 20 -50 37 -104z m681 16 c-19 -15 -61 -49 -94 -77 -32 -27 -79 -65 -103
-83 -43 -32 -61 -57 -50 -68 3 -3 22 10 44 28 21 19 61 52 88 73 47 36 46 34
-20 -33 -38 -40 -66 -72 -62 -72 12 0 90 50 121 79 l29 26 -23 -38 c-36 -61
-61 -116 -91 -202 -15 -44 -28 -71 -28 -60 -1 17 -3 17 -11 5 -11 -17 -13 -9
-4 15 6 13 9 14 16 3 7 -9 8 -8 6 7 -3 28 11 75 22 75 6 0 10 4 10 9 0 5 -8 7
-17 4 -10 -3 -38 -45 -63 -94 -24 -48 -45 -87 -46 -86 -2 1 1 34 6 72 5 39 9
134 10 211 l0 141 138 46 c75 25 142 46 147 46 6 1 -6 -12 -25 -27z m189 -90
c-21 -24 -69 -91 -106 -148 -61 -94 -68 -102 -87 -92 -12 6 -22 12 -24 13 -7
6 69 145 127 233 l61 93 34 -27 34 -28 -39 -44z m-488 58 c9 -33 11 -280 3
-359 -7 -62 -24 -85 -24 -32 0 17 -4 33 -10 36 -6 4 -10 -8 -10 -29 0 -32 -3
-36 -26 -36 -25 0 -25 1 -18 48 13 79 7 262 -10 328 -9 34 -16 65 -16 68 0 4
23 6 52 4 46 -3 53 -6 59 -28z m-1178 -74 c17 -13 17 -16 -4 -67 -27 -67 -79
-232 -75 -236 2 -2 13 25 26 59 35 98 88 208 99 208 15 0 15 2 -18 -82 -16
-40 -42 -115 -57 -165 l-28 -93 -41 7 c-22 3 -42 7 -44 9 -13 11 96 374 113
374 6 0 19 -7 29 -14z m1049 -121 c30 -39 30 -41 23 -130 -4 -49 -10 -108 -14
-130 -7 -37 -8 -38 -15 -15 -13 38 -113 190 -154 234 -21 21 -55 52 -77 68
-39 29 -39 29 -10 23 100 -24 156 -66 211 -161 15 -26 30 -42 32 -36 4 12 -35
90 -72 145 -14 20 -23 37 -20 37 3 0 21 -17 39 -37 21 -23 35 -32 35 -23 0 19
-30 65 -56 86 -13 10 -8 10 15 -3 19 -10 47 -36 63 -58z m-330 34 c102 -34
150 -71 215 -169 45 -67 103 -184 103 -209 0 -12 -10 -54 -22 -95 l-21 -73
-81 121 c-83 124 -189 238 -296 319 -66 49 -85 67 -48 44 37 -23 84 -21 108 3
11 11 21 20 23 19 1 0 10 3 19 6 23 9 11 28 -13 22 -11 -3 -17 -2 -14 3 7 12
-21 20 -71 20 -43 0 -51 -8 -45 -44 1 -5 -5 -4 -13 4 -18 14 -22 25 -6 15 6
-3 10 1 10 10 0 9 -4 14 -8 11 -4 -2 -14 -1 -21 3 -30 19 120 11 181 -10z
m-91 -167 c52 -43 101 -87 109 -98 15 -18 14 -18 -15 1 -89 56 -126 78 -129
74 -3 -2 25 -29 62 -59 76 -63 204 -192 197 -198 -3 -3 -29 18 -60 47 -30 29
-86 67 -127 86 -90 44 -136 47 -59 5 56 -31 125 -80 119 -85 -2 -2 -27 1 -57
7 -70 12 -75 5 -11 -18 27 -10 50 -22 50 -27 0 -9 -25 -7 -120 8 -19 3 11 -10
68 -30 176 -59 302 -129 302 -165 0 -8 -7 -23 -14 -33 -13 -17 -17 -16 -60 17
-25 19 -70 44 -101 55 -54 20 -245 55 -254 46 -5 -5 -3 -6 109 -35 91 -24 156
-47 149 -55 -5 -4 -177 24 -277 45 -28 7 -58 10 -65 7 -6 -2 15 -10 48 -17 33
-6 103 -22 155 -35 l95 -23 -68 -1 c-38 -1 -110 4 -161 10 -51 6 -104 9 -117
7 -38 -5 86 -44 252 -78 78 -17 147 -34 153 -40 13 -13 26 -13 26 -1 0 6 -19
22 -42 36 l-43 26 55 -7 c30 -4 65 -11 78 -15 20 -8 21 -12 11 -30 -6 -12 -52
-63 -102 -114 -76 -75 -107 -99 -179 -135 l-87 -43 -68 22 c-66 20 -225 51
-266 51 -11 0 -31 10 -44 22 -40 38 -33 106 34 310 l58 177 40 0 c61 1 234
-26 327 -50 114 -29 229 -74 288 -114 27 -18 52 -30 55 -25 6 10 -53 47 -135
84 -78 35 -303 92 -445 112 -66 9 -121 17 -122 19 -3 2 36 116 58 173 8 19 20
32 31 32 16 0 16 -3 2 -36 -8 -20 -13 -55 -12 -77 l4 -42 13 32 c7 17 21 48
31 69 11 20 17 40 15 44 -3 4 15 13 39 19 47 11 72 40 83 91 3 17 11 30 18 30
6 0 54 -35 106 -78z m2881 42 c91 -29 163 -99 199 -193 18 -49 18 -51 1 -40
-16 10 -31 5 -87 -26 l-67 -38 -72 17 c-39 9 -100 16 -135 16 -105 0 -181 58
-181 139 0 20 7 35 20 43 25 16 26 30 3 21 -38 -14 11 30 55 49 85 38 168 42
264 12z m-1215 -208 c19 -54 46 -116 60 -138 15 -22 37 -79 49 -126 13 -48 23
-78 24 -67 1 28 50 -124 50 -157 0 -24 -5 -28 -37 -33 -82 -13 -131 -28 -188
-56 -33 -16 -51 -26 -40 -22 11 3 51 17 90 31 38 13 92 26 121 29 57 6 55 8
69 -71 4 -22 27 -80 52 -130 58 -114 61 -159 18 -229 -29 -48 -33 -50 -178
-107 -81 -32 -191 -73 -245 -90 -53 -18 -101 -37 -107 -42 -7 -7 -1 -8 15 -2
14 4 95 28 180 54 152 46 276 93 294 111 6 5 14 9 18 9 12 0 10 -134 -4 -207
-11 -59 -16 -69 -62 -109 -63 -55 -154 -101 -221 -110 -45 -6 -49 -5 -37 9 20
23 -8 75 -70 132 -27 26 -48 48 -46 49 2 0 37 13 78 27 119 42 324 129 340
145 10 10 0 9 -32 -6 -26 -11 -120 -48 -210 -82 -157 -59 -243 -77 -260 -54
-3 5 -20 9 -37 9 -16 0 -28 4 -25 9 3 4 -2 5 -10 2 -9 -3 -16 -1 -16 6 0 6 -5
8 -10 5 -12 -8 -159 32 -178 47 -19 16 -44 68 -33 68 5 0 12 -11 15 -25 5 -20
66 -67 66 -51 0 3 16 -2 36 -10 20 -8 33 -10 29 -5 -3 6 -11 11 -16 11 -18 0
-39 28 -38 52 0 15 3 18 6 8 10 -26 25 -30 109 -30 154 0 339 69 438 164 98
95 72 89 -93 -19 -48 -32 -183 -81 -246 -89 l-50 -6 105 57 c118 64 122 82 5
28 -42 -19 -98 -41 -124 -49 -25 -7 -64 -21 -85 -30 -28 -12 -43 -13 -50 -6
-8 8 -6 9 5 5 10 -4 20 -2 24 4 3 6 16 11 28 12 29 1 -32 18 -91 25 -31 3 -41
1 -37 -7 5 -8 0 -9 -16 -5 -24 7 -24 7 1 -8 14 -9 20 -15 13 -16 -22 0 -70 49
-85 89 -9 23 -13 41 -9 41 5 0 39 23 77 50 37 28 144 96 236 151 92 55 168
104 168 109 0 4 14 13 30 20 17 7 29 15 26 17 -5 5 -234 -109 -344 -171 -139
-78 -198 -108 -174 -87 27 24 14 35 -24 21 -15 -6 -29 -9 -31 -6 -3 2 6 7 19
11 13 4 64 33 113 65 50 31 153 92 230 135 77 43 154 86 170 96 28 18 29 19 7
19 -33 0 -161 -44 -232 -80 -65 -33 -75 -36 -64 -18 4 7 3 8 -5 4 -6 -4 -9
-11 -6 -15 2 -5 -25 -26 -62 -47 -37 -22 -93 -65 -127 -96 -33 -31 -63 -55
-67 -52 -4 2 -10 -1 -12 -6 -3 -6 -4 -5 -3 2 2 7 7 13 12 13 18 0 83 67 77 81
-4 10 -10 11 -24 3 -11 -5 -17 -13 -15 -17 3 -5 0 -14 -6 -22 -8 -12 -9 -12
-5 2 3 9 1 19 -6 21 -7 3 10 15 37 27 26 12 74 37 106 56 62 36 75 41 64 22
-4 -7 -3 -8 5 -4 6 4 9 11 7 15 -6 8 38 43 67 54 12 5 16 3 12 -6 -4 -6 0 -4
8 6 8 9 59 40 113 68 139 71 147 84 36 55 -51 -13 -52 -13 -36 5 11 12 13 19
5 19 -15 0 -84 -35 -131 -66 -44 -29 -129 -56 -154 -48 -11 4 -16 2 -12 -4 3
-6 -9 -19 -27 -30 -56 -34 -127 -103 -128 -125 -2 -22 -2 -22 -6 1 -5 23 -43
52 -43 32 0 -5 5 -10 11 -10 5 0 7 -4 4 -10 -4 -6 -11 -5 -20 3 -11 10 -10 16
8 34 40 40 139 94 161 87 12 -4 18 -3 14 1 -10 10 113 95 126 88 6 -4 8 -3 4
2 -4 4 38 46 93 93 55 47 97 87 95 89 -2 3 -31 -13 -63 -34 -74 -50 -179 -113
-187 -113 -9 0 131 139 169 168 29 22 29 22 5 16 -14 -3 -50 -21 -80 -40 -30
-19 -101 -57 -157 -83 -102 -49 -180 -109 -214 -166 -11 -16 -19 -24 -19 -17
0 7 -4 11 -9 7 -6 -3 -8 4 -6 15 7 37 75 119 75 91 0 -7 5 -9 10 -6 6 4 8 10
5 15 -8 12 60 60 163 112 112 58 263 151 300 184 22 21 13 18 -53 -14 -80 -39
-184 -76 -193 -68 -2 3 18 20 44 38 27 18 69 52 94 76 l45 44 -70 -50 c-93
-65 -125 -85 -125 -79 0 3 29 27 65 52 64 46 73 55 57 55 -19 0 -266 -162
-322 -211 -79 -71 -151 -170 -155 -216 -5 -51 -11 -50 -19 3 -6 43 -3 51 47
128 64 96 146 181 282 289 118 94 154 115 258 156 92 37 161 50 236 47 l54 -3
34 -97z m-1160 12 l-6 -53 14 44 c8 24 17 47 21 50 11 10 -6 -101 -27 -179
-11 -41 -25 -92 -30 -114 -12 -49 -80 -186 -92 -186 -5 0 -6 15 -2 33 l6 32
-16 -27 c-16 -28 -26 -32 -57 -20 -16 6 -14 14 19 77 20 39 49 105 64 148 15
43 30 81 33 84 3 4 6 19 6 34 0 15 5 51 11 79 9 44 14 50 36 50 25 0 25 -1 20
-52z m-1223 18 l33 -14 -9 -58 c-11 -68 -5 -176 15 -251 l14 -51 -26 -5 c-14
-2 -34 -7 -43 -11 -14 -6 -17 2 -24 51 -12 98 -25 107 -20 13 3 -66 1 -78 -6
-55 -12 35 -14 255 -4 338 8 63 14 66 70 43z m3316 -77 c34 -17 65 -23 125
-25 44 -1 100 -10 124 -18 55 -20 92 -20 138 -1 67 28 54 -3 -28 -67 -90 -71
-172 -77 -291 -21 -86 40 -117 76 -143 163 -7 24 -7 24 11 9 11 -9 39 -27 64
-40z m-3253 -336 c3 -10 22 -52 42 -93 46 -96 124 -176 217 -221 62 -31 76
-34 159 -34 106 0 173 18 264 72 75 45 190 148 231 209 29 41 31 42 60 31 16
-6 30 -17 30 -24 0 -7 7 -10 15 -7 24 10 18 -3 -37 -82 -81 -119 -262 -268
-283 -234 -3 5 9 17 27 26 44 22 141 95 135 101 -3 2 -27 -12 -55 -31 -67 -49
-116 -68 -130 -54 -9 9 -12 8 -12 -4 0 -9 -9 -18 -20 -21 -34 -9 -24 -29 11
-22 24 5 30 4 27 -6 -8 -25 -118 -51 -235 -56 -121 -6 -168 2 -258 42 l-56 24
16 37 c20 47 19 48 -9 27 -13 -10 -22 -21 -20 -25 2 -4 0 -9 -5 -12 -12 -7
-109 96 -154 164 -33 50 -78 157 -77 184 1 6 14 -18 31 -53 16 -35 32 -62 35
-58 3 3 -1 18 -9 34 -19 37 -29 82 -22 93 11 18 75 12 82 -7z m973 -244 c-18
-35 -43 -79 -57 -97 -14 -18 -23 -35 -21 -38 7 -7 118 113 118 127 0 7 2 10 5
7 10 -10 -36 -139 -47 -132 -7 4 -7 9 0 13 6 3 14 20 18 36 7 27 6 29 -10 16
-9 -8 -15 -20 -12 -28 4 -8 1 -11 -5 -8 -13 8 -51 -24 -43 -36 3 -5 10 -6 16
-3 6 4 8 2 5 -4 -4 -5 -16 -8 -27 -5 -20 5 -50 -12 -50 -28 0 -5 8 -9 18 -9 9
0 28 -9 42 -20 19 -15 28 -16 40 -7 13 10 13 10 3 -4 -7 -9 -10 -19 -6 -22 12
-12 23 -7 24 11 1 16 2 16 6 0 2 -10 8 -18 13 -18 11 0 35 30 24 30 -5 0 -1 5
9 11 22 13 50 67 41 81 -4 6 -3 8 3 5 13 -8 28 64 15 72 -5 3 -6 15 -2 26 6
16 8 13 14 -17 11 -61 -43 -177 -101 -215 -22 -14 -30 -12 -137 39 l-114 55
74 57 c41 31 95 83 121 116 26 32 49 57 51 55 2 -1 -11 -32 -28 -66z m-704
-223 c76 -20 160 -20 284 -1 52 8 96 12 98 10 3 -2 -33 -23 -79 -45 -94 -45
-87 -51 18 -17 85 28 120 49 135 83 9 18 16 23 32 18 26 -8 129 -64 179 -98
21 -14 42 -26 47 -26 28 0 -7 -145 -39 -164 -16 -10 -55 -17 -47 -8 7 7 11 8
36 11 14 1 50 79 50 106 0 15 -2 17 -9 7 -6 -10 -10 -7 -15 11 -10 42 -42 44
-95 7 -25 -18 -41 -27 -34 -19 6 8 -31 -7 -83 -33 -53 -27 -104 -48 -115 -48
-10 0 -19 -4 -19 -10 0 -13 1 -13 44 5 20 8 36 11 36 7 0 -9 -45 -24 -107 -37
-18 -4 -33 -11 -33 -17 0 -17 172 -3 209 17 17 8 31 13 31 10 0 -11 -76 -41
-95 -38 -15 3 -16 2 -7 -5 11 -7 10 -10 -3 -16 -9 -3 -24 -6 -33 -5 -14 0 -13
2 3 9 16 7 16 9 4 9 -9 1 -36 -8 -60 -19 -24 -11 -41 -20 -37 -20 3 0 14 -3
24 -7 13 -5 15 -3 10 8 -4 8 1 5 11 -7 10 -11 25 -20 33 -19 10 2 16 -8 17
-31 2 -41 20 -77 35 -68 7 5 8 2 3 -6 -6 -10 -4 -12 9 -7 10 4 15 3 11 -3 -3
-6 -1 -10 6 -10 7 0 9 -3 6 -6 -13 -14 -59 29 -77 72 -22 51 -46 64 -154 84
-66 12 -196 10 -303 -6 -31 -5 -43 -3 -43 6 0 7 -11 25 -24 40 -31 37 -39 108
-22 189 11 54 11 61 0 46 -7 -10 -21 -51 -30 -92 -19 -87 -13 -147 18 -180 27
-29 15 -42 -20 -22 -27 15 -27 15 -27 134 1 106 4 129 29 197 l28 77 52 -29
c28 -16 79 -36 112 -44z m2368 -262 c25 -71 25 -72 10 -150 -18 -90 -26 -137
-18 -111 19 62 41 -56 29 -162 -8 -72 -8 -69 1 -246 7 -155 -8 -317 -37 -400
-20 -55 -21 -67 -10 -88 10 -19 11 -39 2 -92 -11 -71 -29 -108 -61 -125 -18
-10 -20 -8 -20 18 0 62 -46 67 -212 21 -151 -41 -200 -50 -195 -35 2 6 -3 16
-11 22 -15 11 -55 154 -46 163 2 2 7 -10 10 -27 4 -18 11 -29 16 -26 5 3 7 13
4 21 -3 8 -2 12 3 9 11 -7 33 19 24 28 -4 4 0 4 10 0 10 -3 17 -1 17 5 0 6 -9
11 -21 11 -11 0 -29 5 -41 11 -27 14 -36 2 -12 -16 18 -13 18 -14 -3 -8 -13 3
-23 11 -23 19 0 17 -45 164 -71 229 -10 28 -19 61 -19 73 0 15 -4 21 -12 17
-7 -4 -6 -1 2 7 10 9 14 27 12 54 l-3 42 73 30 c85 34 323 116 388 132 25 7
60 19 79 28 32 15 34 15 52 -9 10 -13 19 -27 19 -30 0 -3 -36 -23 -80 -43 -79
-36 -104 -45 -368 -126 -131 -40 -173 -62 -76 -39 159 37 416 124 507 170 l38
20 -5 -48 c-3 -26 -10 -102 -16 -168 -8 -83 -16 -123 -26 -131 -42 -33 -422
-110 -483 -98 -21 4 -31 3 -31 -5 0 -8 8 -10 20 -6 11 4 20 2 20 -4 0 -6 -5
-10 -11 -8 -6 1 -13 -3 -16 -10 -3 -8 3 -9 24 -3 15 5 62 14 103 20 95 14 349
70 373 82 14 7 17 4 17 -19 0 -24 -8 -32 -57 -55 -47 -22 -271 -88 -299 -88
-4 0 -5 -2 -2 -5 8 -9 269 53 310 74 21 10 38 16 38 12 -1 -3 -7 -33 -15 -66
-15 -60 -20 -133 -9 -123 3 4 18 58 34 122 23 93 26 124 18 152 -7 26 -5 56 6
111 9 41 16 103 16 137 0 33 5 77 10 96 9 29 7 38 -7 50 -10 9 -28 30 -40 47
l-23 32 31 65 c17 36 29 71 27 77 -4 11 -63 -73 -99 -139 -11 -19 -28 -32 -47
-36 -16 -4 -99 -32 -183 -61 -149 -53 -196 -65 -185 -46 3 5 -5 16 -19 25 -35
23 -45 19 -15 -5 l25 -20 -30 15 c-49 25 -146 106 -139 117 3 6 12 8 20 5 7
-3 16 -1 19 4 7 12 -65 48 -88 44 -14 -2 -15 1 -8 10 6 7 7 16 3 21 -4 4 18
-9 49 -28 31 -20 60 -33 64 -29 5 4 5 2 1 -5 -4 -8 3 -15 21 -19 15 -4 53 -18
83 -32 45 -21 70 -26 145 -26 115 -1 132 4 184 57 41 42 101 123 101 137 0 4
-27 -7 -59 -23 -78 -38 -220 -48 -315 -23 -66 18 -162 18 -159 1 3 -17 -35
-15 -41 2 -5 13 -4 13 7 4 11 -9 17 -8 27 4 10 12 8 16 -11 24 -13 5 -28 6
-33 3 -5 -3 -6 0 -2 7 4 6 4 17 -1 24 -12 16 -33 89 -32 113 0 11 7 1 15 -21
7 -22 21 -53 30 -68 9 -16 13 -31 10 -34 -3 -3 7 -12 22 -20 29 -16 170 -12
317 8 152 21 281 113 304 218 14 66 15 238 1 246 -8 5 -7 12 2 22 11 14 14 12
20 -13 4 -16 18 -61 32 -100z m-2096 -89 c40 -11 68 -26 77 -39 7 -12 16 -56
20 -98 6 -75 6 -78 -21 -103 -14 -13 -43 -30 -63 -36 -41 -13 -377 -25 -415
-15 -35 9 -53 48 -67 149 -15 100 -11 108 60 132 114 38 295 42 409 10z m178
-290 c4 -8 10 -12 15 -9 16 10 36 -15 37 -44 0 -15 -5 -30 -11 -34 -7 -4 -6
-12 3 -23 11 -13 15 -13 23 -3 6 9 7 8 3 -5 -3 -10 -6 -26 -6 -35 -1 -10 -7
-5 -16 13 -8 17 -12 22 -10 13 3 -9 -2 -22 -10 -28 -12 -11 -13 -5 -8 36 4 27
11 57 16 67 9 17 3 37 -10 37 -4 0 -24 -29 -46 -64 -42 -68 -76 -95 -220 -172
-124 -67 -64 -53 79 18 11 6 -5 -13 -35 -41 l-55 -51 40 15 c22 9 64 32 93 51
l53 35 -22 -43 c-12 -24 -35 -58 -50 -76 -53 -60 -34 -70 35 -17 52 40 72 58
104 100 40 51 91 36 63 -18 -10 -20 -10 -19 -5 10 5 28 3 32 -15 30 -12 -1
-20 -6 -20 -12 3 -23 -2 -36 -10 -30 -6 3 -9 -3 -9 -12 1 -17 -39 -93 -49 -93
-3 0 7 20 21 45 15 25 22 45 16 45 -15 0 -49 -80 -42 -98 4 -11 1 -13 -8 -7
-8 5 -11 4 -7 -1 3 -6 -14 -39 -39 -74 l-44 -64 0 47 c0 25 -4 57 -10 71 -9
23 -15 26 -62 26 -29 0 -100 -7 -158 -15 -131 -18 -130 -18 -124 -1 3 7 -4 49
-16 92 -16 64 -20 98 -16 179 l5 100 -15 -85 c-17 -99 -13 -225 9 -270 16 -32
15 -33 -20 -24 -16 5 -23 14 -23 31 0 14 -7 52 -16 85 -10 42 -14 95 -12 174
2 63 3 114 3 114 0 0 15 -4 34 -10 34 -9 384 3 426 15 16 5 21 2 21 -14 0 -11
-3 -18 -6 -17 -3 2 -21 -15 -40 -37 -27 -31 -30 -37 -12 -28 42 22 22 3 -23
-23 -42 -23 -135 -46 -135 -32 0 3 27 20 61 37 97 48 62 44 -62 -8 -122 -52
-144 -74 -92 -94 28 -11 85 -4 176 22 69 19 264 185 243 207 -4 3 -21 -8 -39
-24 -17 -17 -41 -37 -52 -45 -17 -12 -16 -10 4 19 12 17 28 32 35 32 8 0 19 7
26 15 16 19 29 19 36 0z m50 -324 c0 -11 -4 -17 -8 -15 -4 3 -5 -8 -2 -24 3
-16 2 -32 -4 -35 -5 -4 -7 5 -5 21 2 15 -8 -2 -22 -37 -13 -35 -22 -68 -18
-74 3 -5 2 -7 -4 -4 -12 8 -45 -71 -36 -86 3 -6 2 -7 -4 -4 -14 9 -89 -152
-92 -198 -1 -21 -5 -42 -8 -45 -3 -3 -3 49 0 114 4 66 10 122 15 125 13 9 140
198 163 242 22 44 25 46 25 20z m-258 -103 c-4 -28 -82 -54 -206 -66 l-87 -9
90 -1 c50 -1 115 5 147 12 l56 14 6 -147 c8 -185 14 -243 26 -255 7 -7 10 -1
10 16 0 18 6 27 23 31 20 5 20 5 5 -7 -24 -18 -23 -46 1 -46 10 0 24 -7 31
-15 7 -8 16 -12 21 -9 5 3 9 -1 9 -8 0 -9 3 -9 10 2 5 8 14 16 20 16 5 1 15 2
21 3 5 0 7 6 3 13 -5 7 -2 9 9 5 17 -6 41 15 29 27 -4 4 -2 7 3 6 6 -1 21 1
33 5 18 6 20 10 10 16 -10 7 -9 9 4 9 21 0 32 46 24 103 l-5 42 11 -40 c8 -29
8 -50 -1 -83 -6 -23 -9 -53 -6 -65 3 -12 -1 -31 -10 -42 l-15 -20 7 20 c6 18
5 18 -10 6 -12 -10 -14 -17 -7 -26 13 -16 7 -60 -8 -61 -25 -3 -26 -6 -7 -15
19 -9 18 -9 -2 -5 -13 2 -26 0 -29 -5 -3 -5 -10 -9 -15 -9 -5 0 6 14 26 31 38
34 46 59 18 59 -14 0 -15 -2 -5 -9 10 -6 7 -10 -12 -13 -24 -5 -23 -3 14 40
22 25 40 49 40 53 0 15 -17 10 -47 -14 -50 -41 -123 -87 -123 -77 0 6 6 10 13
11 7 0 6 3 -3 6 -8 4 -20 13 -25 20 -6 8 -24 13 -40 12 -17 -1 -84 -2 -149 -3
l-120 -1 -37 90 -38 90 37 3 c54 4 175 33 187 45 7 7 4 8 -10 3 -36 -14 -142
-27 -185 -24 l-41 3 -39 93 c-21 51 -44 99 -51 108 -21 26 14 44 85 45 34 0
111 8 171 18 146 24 137 24 133 -1z m913 -384 c30 -3 88 -1 129 5 95 15 146
-1 215 -66 42 -40 62 -50 114 -62 54 -12 66 -19 86 -50 12 -20 34 -47 48 -59
l25 -24 -20 -20 c-25 -25 -19 -83 17 -143 18 -31 21 -45 13 -59 -7 -13 -7 -26
1 -43 15 -33 14 -100 -4 -208 -41 -245 -45 -320 -19 -395 16 -45 16 -46 -10
-84 -14 -21 -26 -49 -26 -62 0 -16 -10 -29 -31 -39 -100 -52 -91 -113 26 -167
48 -22 60 -23 290 -22 247 1 246 -3 -12 -27 -73 -7 -133 -17 -133 -22 0 -6 23
-7 59 -4 32 4 103 9 157 11 86 5 92 4 45 -5 -30 -5 -57 -12 -60 -14 -8 -8 51
-6 229 11 94 8 177 13 183 11 21 -7 -141 -27 -216 -27 -60 0 -78 -4 -108 -24
-36 -25 -49 -27 -329 -66 -80 -11 -165 -27 -190 -35 -42 -14 -35 -14 125 -10
94 2 202 8 240 13 162 22 426 75 510 102 50 16 111 32 137 36 26 3 49 12 52
20 4 9 21 14 51 14 60 0 111 25 94 46 -9 11 -7 14 14 14 42 0 207 41 207 52 0
5 -12 7 -27 4 -72 -13 -103 -16 -103 -12 0 3 20 11 45 17 25 6 45 16 45 21 0
5 -8 7 -17 4 -84 -25 -325 -32 -408 -12 l-50 13 70 7 c39 3 86 11 105 16 19 5
108 10 197 11 141 2 200 9 183 21 -3 2 -45 12 -95 22 -102 20 -116 26 -89 38
12 5 3 6 -22 2 -49 -6 -68 11 -38 33 16 11 16 15 5 23 -12 7 -12 12 3 35 43
66 47 67 127 40 45 -16 95 -25 131 -25 33 0 71 -6 86 -14 36 -19 76 -64 92
-104 14 -35 64 -70 138 -96 57 -20 52 -7 -11 29 -33 19 -63 47 -83 78 -18 27
-42 59 -55 73 -26 28 -103 58 -173 69 -27 3 -61 11 -75 17 l-26 11 28 8 c16 4
70 11 120 15 144 11 145 21 2 18 -119 -3 -124 -2 -67 8 36 5 60 14 55 19 -4 4
-49 10 -98 12 l-90 3 110 2 c116 2 185 10 185 21 0 8 -259 30 -380 33 -73 1
-66 2 50 9 74 3 155 7 179 8 97 2 18 19 -164 35 -203 18 -356 40 -414 60 -20
7 -82 23 -138 36 l-102 23 -7 45 c-7 50 -8 129 -1 242 3 41 5 92 6 114 l1 39
48 -6 c26 -3 58 -8 72 -12 24 -6 24 -6 7 9 -11 8 -41 20 -67 27 -47 12 -48 13
-38 41 6 16 8 41 5 56 -4 19 1 35 18 55 29 32 31 32 137 7 46 -11 111 -20 146
-20 59 0 62 -1 52 -19 -15 -29 -12 -78 8 -114 l17 -32 3 51 c4 62 23 83 90
100 44 12 54 10 147 -21 55 -19 120 -39 145 -46 25 -6 108 -47 185 -92 77 -44
171 -96 209 -114 38 -19 95 -52 127 -74 53 -35 63 -48 103 -133 25 -51 60
-107 78 -125 85 -81 205 -189 228 -204 14 -9 36 -24 50 -34 14 -9 -6 16 -45
57 -57 60 -64 69 -35 53 19 -12 62 -28 94 -38 64 -18 171 -69 231 -110 l38
-25 -29 -1 c-16 0 -75 0 -131 1 -139 2 -136 -18 5 -46 64 -13 38 -19 -64 -16
-65 2 -104 0 -104 -7 0 -5 4 -12 9 -15 5 -3 114 -13 242 -21 128 -9 238 -20
245 -26 47 -39 44 -185 -7 -309 -41 -102 -78 -135 -196 -174 -94 -31 -154 -33
-234 -5 l-61 20 -117 -29 c-64 -17 -181 -42 -261 -56 -80 -15 -179 -33 -220
-40 -134 -25 -156 -28 -140 -17 8 6 23 11 33 11 25 0 509 116 572 137 l50 16
-35 15 c-27 11 -42 11 -70 3 -19 -6 -84 -20 -145 -31 -60 -10 -182 -33 -270
-50 -88 -17 -223 -42 -300 -56 -77 -14 -167 -32 -200 -40 -33 -7 -67 -13 -75
-13 -29 1 77 29 220 58 80 17 195 42 255 56 205 49 370 85 387 85 10 0 18 5
18 10 0 13 -1 13 -69 -4 -57 -15 -204 -37 -676 -102 -143 -19 -329 -46 -414
-60 -84 -14 -155 -24 -157 -21 -5 4 289 59 526 97 383 62 647 110 683 125 17
7 24 25 10 25 -5 0 -38 -7 -75 -14 -36 -8 -99 -17 -140 -21 -145 -12 -356 -36
-503 -55 -169 -23 -477 -61 -730 -91 -93 -11 -225 -29 -292 -39 -91 -15 -169
-20 -300 -19 -98 0 -172 3 -165 6 6 2 12 11 12 20 0 16 -31 10 -65 -13 -21
-15 -64 -18 -115 -7 -32 6 -32 6 36 33 81 33 97 54 32 44 -23 -3 -94 -19 -157
-35 -173 -44 -166 -35 32 35 48 18 77 33 77 43 0 8 -3 12 -8 9 -4 -2 -99 -25
-211 -50 -262 -59 -336 -60 -106 -2 164 42 249 70 270 88 13 12 -5 10 -74 -7
-33 -9 -154 -32 -268 -51 -114 -19 -233 -39 -263 -44 -86 -15 -81 6 7 24 287
61 563 134 563 149 0 5 -10 7 -22 4 -72 -18 -513 -104 -688 -134 -166 -29
-246 -37 -420 -44 -391 -14 -468 -16 -420 -7 152 29 340 81 590 165 157 52
290 100 295 105 7 7 2 8 -15 3 -102 -31 -359 -96 -495 -124 -186 -39 -904 -59
-1170 -33 -138 13 -120 15 -429 -34 -109 -17 -109 -17 -180 6 -84 27 -143 56
-236 115 -80 51 -92 65 -55 65 44 0 253 60 339 97 44 19 96 42 114 49 44 19
41 9 -5 -15 l-38 -20 31 -1 c17 0 37 -6 43 -14 9 -10 26 -13 59 -10 l46 4 -36
-19 c-21 -10 -87 -36 -148 -57 -81 -29 -110 -43 -107 -54 4 -17 4 -17 107 16
194 62 238 81 274 122 46 53 71 75 98 84 18 6 44 24 59 39 15 15 45 33 68 39
22 6 42 14 45 19 3 4 41 16 86 26 44 10 80 22 80 27 0 6 -36 8 -81 6 -96 -4
-110 9 -47 41 l43 22 -58 -6 c-31 -3 -81 -14 -110 -25 -28 -11 -54 -20 -56
-20 -2 0 -1 35 2 78 6 72 4 80 -20 115 -14 20 -37 40 -50 43 -32 8 -46 35 -25
50 13 9 10 12 -20 18 -20 4 -41 13 -47 20 -14 17 13 39 184 150 66 43 143 98
172 122 98 84 191 107 238 60 37 -37 20 -73 -63 -130 -37 -25 -96 -71 -132
-101 -75 -65 -135 -96 -196 -103 -24 -2 -44 -9 -44 -13 0 -13 41 -11 94 5 43
13 46 13 34 -1 -11 -14 -10 -15 7 -10 11 3 50 8 87 12 75 7 159 43 278 120 41
27 111 70 155 97 44 26 76 48 70 48 -18 0 -249 -82 -314 -111 -78 -35 -81 -36
-50 -3 35 38 84 67 167 98 39 15 72 30 72 33 0 9 -64 -9 -119 -33 l-53 -24 36
40 c21 23 36 50 36 64 0 22 6 26 48 31 139 19 353 74 377 96 13 13 -6 11 -52
-5 -22 -8 -86 -21 -141 -30 -56 -9 -109 -19 -119 -22 -10 -3 -5 2 11 12 79 45
564 224 608 224 14 0 54 -115 49 -140 -2 -8 -4 -26 -4 -38 -2 -19 -17 -31 -73
-59 -39 -19 -91 -36 -115 -38 -44 -4 -137 -32 -179 -55 -28 -15 -136 -180
-150 -228 -13 -48 -13 -153 0 -187 6 -15 19 -29 30 -32 11 -3 22 -14 25 -24 4
-11 15 -24 26 -29 10 -6 28 -33 40 -60 12 -28 35 -61 50 -75 16 -13 29 -25 29
-28 0 -5 -1 -5 -135 -13 -109 -7 -110 -7 -75 -22 24 -11 72 -16 150 -17 64 -1
128 -6 143 -13 16 -7 56 -12 90 -13 l62 -1 -45 -12 c-66 -18 -33 -30 58 -21
41 4 96 13 121 21 30 9 49 10 55 4 6 -6 19 -10 30 -10 20 0 20 0 0 -15 -18
-14 -17 -15 11 -9 17 3 44 10 60 16 17 6 68 13 115 17 86 6 86 6 75 -16 -11
-25 -88 -46 -230 -64 -108 -14 -115 -17 -91 -35 31 -22 108 -17 240 17 148 37
418 119 430 130 5 4 0 6 -10 4 -134 -31 -258 -58 -294 -65 l-45 -8 35 29 c19
15 41 29 48 29 34 0 264 33 327 45 39 8 116 34 173 57 97 40 102 43 100 70 -1
16 -8 28 -16 28 -26 0 -2 18 43 30 46 13 69 30 41 30 -9 0 -44 -9 -78 -20 -55
-17 -314 -70 -343 -70 -9 0 52 22 260 94 85 30 121 55 112 79 -5 14 -32 18
-292 43 -33 4 -63 8 -68 11 -4 2 6 17 23 33 36 34 39 68 8 97 -26 24 -87 43
-139 43 -36 0 -37 1 -44 48 -4 26 -11 52 -15 57 -20 24 -40 127 -41 210 -3
186 10 219 92 228 35 4 76 21 131 53 45 26 108 58 142 71 63 24 74 24 237 7z
m-837 -138 c3 -14 4 -30 2 -38 -2 -7 -7 -33 -10 -58 l-6 -45 19 34 c11 21 21
30 25 22 9 -13 85 -14 141 -1 22 5 41 7 43 5 2 -2 -6 -36 -17 -75 -21 -75 -67
-153 -159 -273 -53 -69 -62 -97 -20 -61 23 19 23 19 5 -2 -9 -11 -14 -24 -10
-29 5 -4 2 -5 -4 -1 -8 4 -13 1 -13 -9 0 -9 -4 -13 -10 -10 -6 4 -10 -13 -10
-43 l0 -49 -167 -32 c-93 -18 -174 -33 -181 -34 -8 -1 -22 19 -32 45 -18 48
-76 134 -107 159 -9 8 2 -10 24 -38 51 -65 90 -162 71 -174 -27 -17 -37 -7
-77 74 -47 99 -106 162 -164 178 l-40 11 24 23 c17 16 69 36 168 65 80 22 161
50 181 61 l37 21 44 -20 c53 -24 121 -81 160 -135 16 -22 29 -35 29 -29 0 15
-66 102 -98 130 -15 13 -48 34 -74 48 -39 20 -48 29 -48 50 0 22 2 25 15 14
18 -15 19 -10 4 27 -35 90 -58 187 -48 200 9 10 47 13 154 13 143 0 143 0 149
-24z m1910 -2 c27 -10 24 -22 -49 -239 -6 -19 -6 -19 5 -1 10 15 14 16 21 5
12 -20 27 -1 34 41 4 28 3 31 -5 15 -8 -16 -9 -11 -4 20 6 47 29 85 49 85 23
0 24 -13 5 -70 -11 -30 -19 -67 -20 -81 0 -14 -3 -29 -7 -33 -10 -10 -43 -99
-39 -103 2 -2 13 7 24 21 26 34 34 15 20 -48 -8 -38 -13 -46 -26 -41 -97 38
-249 41 -341 6 -48 -18 -48 -18 -61 3 -10 17 -10 19 1 9 18 -18 32 -16 25 3
-3 8 -2 12 3 9 5 -3 12 -1 16 5 3 5 0 10 -7 11 -7 0 9 7 35 14 39 11 66 11
142 1 75 -9 92 -9 83 1 -5 7 -25 15 -44 19 -19 3 -34 10 -34 15 0 9 16 7 88
-11 34 -9 44 3 15 18 -38 20 -100 22 -178 7 -98 -18 -95 -18 -95 0 0 8 -5 15
-11 15 -5 0 -8 -4 -4 -9 3 -5 0 -13 -6 -17 -8 -4 -9 -3 -5 4 4 7 3 12 -1 12
-13 0 -53 131 -53 173 0 30 5 39 28 51 24 12 273 77 342 89 14 2 28 5 32 6 3
0 13 -2 22 -5z m-34 -437 c33 -9 46 -18 48 -34 3 -21 2 -21 -45 -7 -75 23
-216 21 -287 -5 -32 -11 -62 -18 -67 -16 -4 3 -10 0 -12 -5 -3 -6 -4 -5 -3 2
4 19 78 69 117 79 44 11 192 3 249 -14z m-2504 -48 c49 -23 85 -67 119 -142
37 -82 36 -89 -10 -99 -100 -22 -169 -27 -221 -16 l-54 11 0 46 c0 65 17 119
53 173 36 54 51 58 113 27z m2510 -20 l49 -24 16 -78 c10 -43 20 -99 24 -124
l7 -46 -46 40 c-24 22 -62 45 -84 51 -84 25 -232 8 -323 -39 -64 -32 -67 -30
-48 36 8 29 8 28 5 -8 -1 -23 2 -36 8 -34 6 2 10 11 10 20 -1 9 2 15 6 12 4
-3 11 2 14 11 5 12 2 15 -9 10 -9 -3 -13 -2 -10 3 3 5 1 12 -5 16 -5 3 -10 16
-9 28 0 21 1 21 9 2 8 -20 9 -20 9 1 1 12 12 38 26 58 13 20 20 36 15 36 -6 0
-10 -5 -10 -11 0 -5 -5 -7 -12 -3 -7 4 -8 3 -4 -4 4 -7 3 -12 -3 -12 -5 0 -12
-10 -14 -22 -4 -16 -5 -13 -4 7 2 33 44 63 127 90 69 23 194 15 256 -16z m-6
-218 c14 -8 44 -32 68 -54 41 -40 42 -43 42 -104 0 -35 -7 -79 -15 -99 -21
-51 -94 -81 -221 -94 -130 -13 -134 -12 -128 3 6 17 -38 38 -56 27 -9 -6 -8
-10 6 -19 29 -16 7 -13 -26 4 -31 16 -37 29 -19 40 6 5 4 16 -8 33 -16 26 -28
136 -12 127 7 -5 33 51 28 59 -2 2 7 17 21 32 14 16 18 23 8 16 -10 -8 -19 -9
-22 -3 -7 11 29 25 44 16 5 -3 10 -2 10 3 0 9 57 27 105 34 36 6 150 -8 175
-21z m-2281 -28 l-1 -28 -8 25 -7 25 -11 -26 c-9 -22 -19 -28 -54 -32 -24 -2
-83 -10 -131 -17 -100 -14 -161 -4 -169 28 -5 17 1 18 66 15 39 -3 110 2 159
10 83 14 87 13 87 -4 0 -27 19 -23 30 6 13 35 40 33 39 -2z m2379 -295 c-9
-13 -36 -40 -62 -62 l-47 -40 -132 2 c-141 3 -196 14 -223 44 -24 25 -16 29
31 12 54 -19 91 -20 220 -5 88 10 120 18 160 41 61 35 72 37 53 8z m-2698
-504 c-41 -8 -132 -28 -202 -45 l-128 -31 -342 5 c-244 4 -359 9 -397 19 l-54
14 104 17 c79 13 173 17 394 18 160 1 333 5 385 9 52 3 145 7 205 7 l110 1
-75 -14z"/>
<path d="M4183 8295 c-71 -36 -139 -75 -153 -86 -14 -10 27 7 90 39 151 76
223 102 237 87 8 -9 -10 -20 -74 -45 -119 -46 -433 -229 -433 -252 0 -4 30 13
66 38 68 46 164 99 164 89 0 -2 -17 -13 -37 -24 -37 -18 -95 -71 -79 -71 5 0
-19 -20 -52 -45 -60 -45 -91 -75 -77 -75 4 0 22 13 40 29 41 36 216 144 233
144 6 0 12 4 12 8 0 5 7 5 17 2 12 -5 14 -3 8 7 -6 10 -4 12 9 7 9 -4 15 -3
12 2 -5 8 130 71 179 84 51 13 79 17 65 8 -8 -4 -32 -11 -52 -15 -21 -4 -38
-11 -38 -17 0 -6 -4 -8 -9 -5 -8 6 -134 -44 -128 -51 2 -1 28 6 58 16 30 11
72 22 94 26 39 6 39 6 20 -11 l-20 -17 20 8 c11 4 39 12 63 18 23 6 42 14 42
18 0 4 10 5 22 1 14 -3 19 -1 14 6 -5 8 -2 10 8 6 9 -3 16 -1 16 5 0 6 -6 11
-13 11 -7 0 -22 12 -34 28 -12 15 -32 38 -43 52 l-22 25 16 -25 c9 -13 16 -36
15 -50 0 -19 -2 -21 -7 -8 -13 31 -83 98 -102 98 -11 0 -77 -29 -147 -65z"/>
<path d="M6524 8234 c11 -28 26 -113 26 -143 -1 -19 -7 -11 -26 34 -13 33 -29
64 -34 69 -14 14 -13 -43 1 -98 6 -23 9 -62 7 -86 l-3 -45 -28 82 c-16 46 -33
85 -38 88 -11 8 -12 -7 0 -37 4 -13 11 -36 15 -53 5 -26 5 -27 -5 -10 -6 11
-23 39 -36 63 -31 55 -42 48 -13 -8 33 -64 88 -241 82 -263 -1 -4 6 -3 17 3
25 13 34 42 34 110 l-1 55 9 -42 c8 -42 7 -59 -6 -98 -5 -16 -4 -15 7 3 8 12
17 19 21 16 4 -4 7 0 7 9 0 9 5 19 12 23 7 5 8 3 3 -6 -5 -7 -4 -11 1 -8 5 4
7 58 3 125 -5 115 -27 215 -51 230 -8 4 -9 0 -4 -13z"/>
<path d="M6598 8203 c13 -25 21 -69 25 -126 4 -75 2 -90 -14 -111 -32 -41 -21
-48 25 -17 24 17 47 27 51 23 5 -4 6 0 2 9 -4 13 -1 16 15 11 17 -4 20 -2 15
12 -4 9 -3 15 2 11 13 -7 25 77 15 107 -7 23 -7 22 -16 -7 -4 -16 -6 -36 -3
-43 3 -7 0 -10 -5 -7 -6 3 -10 -4 -10 -17 0 -13 -10 -32 -23 -44 -31 -28 -47
-37 -47 -25 0 6 5 11 10 11 6 0 19 9 31 21 30 30 19 88 -33 167 -44 68 -69 84
-40 25z"/>
<path d="M5930 7936 c0 -4 13 -36 29 -70 57 -119 50 -129 -25 -33 -41 51 -70
82 -72 73 -2 -8 13 -52 33 -97 39 -88 59 -166 70 -267 5 -42 12 -65 23 -72 10
-5 12 -10 5 -10 -6 0 -19 10 -28 23 l-16 22 3 -29 c2 -20 9 -30 23 -32 26 -4
68 23 59 38 -4 6 -3 8 3 5 12 -8 66 57 56 67 -4 3 1 6 9 6 25 0 38 23 23 37
-11 10 -15 8 -18 -10 -3 -14 -5 -9 -6 14 -2 67 -42 194 -83 267 -23 39 -45 72
-50 72 -4 0 5 -24 21 -52 53 -96 111 -331 88 -355 -4 -3 -7 16 -7 43 0 61 -12
106 -58 214 -33 79 -82 166 -82 146z"/>
<path d="M5800 7822 c0 -4 6 -16 13 -27 38 -55 98 -271 107 -380 1 -11 4 -14
7 -7 2 6 8 10 12 7 5 -2 17 3 27 11 10 9 14 13 9 11 -26 -13 -40 19 -41 93 0
57 -8 98 -33 172 -18 54 -36 100 -41 103 -5 3 -5 -9 1 -27 15 -55 10 -55 -21
0 -29 49 -40 62 -40 44z"/>
<path d="M3662 6563 c5 -31 18 -71 28 -89 32 -51 23 -62 -15 -19 -19 22 -34
36 -35 32 0 -17 50 -103 73 -125 23 -22 24 -26 11 -50 -25 -49 -15 -54 31 -15
25 21 43 42 41 48 -17 42 -17 42 12 37 47 -6 46 14 0 46 -28 20 -61 59 -93
111 -27 44 -53 81 -56 81 -3 0 -2 -26 3 -57z"/>
<path d="M5720 4157 c-175 -117 -530 -275 -530 -236 0 5 -11 3 -25 -3 -16 -7
-21 -14 -14 -19 8 -5 7 -8 -2 -12 -9 -3 -7 -6 6 -6 16 -1 17 -3 6 -10 -12 -8
-12 -13 2 -35 15 -23 20 -24 49 -14 108 34 211 74 268 103 36 18 96 45 133 61
85 34 221 114 265 157 42 41 24 48 -26 10 -41 -32 -117 -76 -171 -99 -42 -18
-37 -11 25 30 51 34 140 131 127 139 -4 3 -55 -27 -113 -66z"/>
<path d="M4160 3964 c-36 -24 -82 -49 -103 -55 -56 -15 -193 -12 -257 5 -59
16 -74 14 -40 -4 31 -16 163 -40 228 -40 l57 -1 -34 -15 c-36 -15 -123 -31
-228 -41 -35 -3 -63 -10 -63 -14 0 -12 14 -11 155 5 174 21 218 33 283 76 59
40 127 99 121 104 -7 6 -48 26 -51 25 -2 -1 -32 -21 -68 -45z"/>
<path d="M5900 2864 c-19 -8 -89 -26 -155 -40 -171 -34 -165 -32 -165 -54 0
-10 3 -21 8 -23 11 -7 116 11 170 29 51 18 181 80 197 95 14 14 -15 10 -55 -7z"/>
<path d="M4980 2550 c-36 -4 -118 -8 -182 -9 -108 -1 -118 -3 -118 -20 0 -41
24 -46 199 -43 171 4 231 16 231 46 0 17 -31 37 -52 34 -7 0 -42 -4 -78 -8z"/>
<path d="M4575 2460 c-8 -13 23 -58 46 -65 10 -3 49 -10 86 -15 37 -5 82 -12
100 -16 23 -4 50 2 110 29 43 19 111 41 151 48 40 7 75 16 78 21 6 9 -41 4
-131 -13 -27 -5 -111 -10 -185 -11 -105 -2 -147 1 -189 15 -64 20 -58 19 -66
7z"/>
<path d="M6572 2254 c-12 -8 -22 -25 -22 -38 0 -35 62 -109 122 -147 29 -18
67 -45 85 -60 52 -44 126 -65 258 -74 208 -14 286 -12 298 6 32 50 -40 115
-172 155 -51 16 -109 42 -141 65 -57 39 -218 114 -227 106 -2 -3 35 -24 83
-47 75 -35 249 -149 241 -157 -9 -9 -77 21 -98 43 -36 38 -79 62 -171 93 -46
15 -101 38 -123 50 -47 25 -102 27 -133 5z"/>
<path d="M4884 2179 c-70 -12 -104 -26 -104 -43 0 -28 38 -36 162 -36 68 0
140 -5 161 -11 32 -9 42 -8 56 5 10 9 28 16 42 16 32 0 53 15 47 32 -4 9 -44
20 -114 31 -117 18 -169 20 -250 6z"/>
<path d="M6395 2168 c4 -13 24 -49 45 -80 38 -56 38 -58 12 -44 -15 8 -43 30
-61 50 -54 56 -57 42 -5 -19 56 -65 294 -224 294 -196 0 5 -21 28 -47 51 -47
41 -46 41 102 -34 162 -82 211 -97 264 -84 62 17 -11 47 -113 48 -39 0 -67 10
-143 51 -53 28 -109 64 -127 78 -17 15 -59 44 -92 66 -38 24 -74 58 -94 87
-37 53 -44 59 -35 26z"/>
<path d="M2725 2032 c-33 -16 -100 -62 -150 -102 -49 -40 -106 -79 -125 -87
-19 -8 -43 -22 -52 -31 -21 -18 -24 -48 -6 -54 16 -6 116 35 166 66 21 12 53
28 72 36 75 29 218 156 207 184 -9 24 -45 19 -112 -12z"/>
<path d="M3099 1908 c-24 -18 -109 -71 -189 -119 -80 -47 -144 -90 -143 -95 1
-5 -24 -10 -54 -11 -61 -3 -72 -8 -56 -24 13 -13 123 -17 142 -5 12 8 11 11
-4 23 -18 12 -17 13 7 13 35 0 303 180 347 233 22 27 -2 20 -50 -15z"/>
<path d="M6649 1394 c-14 -17 4 -44 30 -44 9 0 24 -7 35 -15 10 -8 39 -17 65
-21 25 -4 63 -13 85 -20 51 -18 69 -18 96 4 32 26 15 53 -52 82 -65 28 -240
37 -259 14z"/>
<path d="M4730 1345 c-19 -8 -111 -37 -205 -65 -200 -60 -256 -80 -270 -93
-23 -22 113 4 239 47 132 45 286 110 286 120 0 8 -9 6 -50 -9z"/>
<path d="M7453 1263 c5 -32 15 -39 102 -73 47 -18 84 -35 82 -37 -2 -2 -33 5
-68 16 -103 32 -246 63 -271 59 -24 -3 166 -83 267 -112 157 -45 415 -63 485
-33 23 10 30 16 20 20 -8 2 -115 24 -237 47 -123 23 -223 44 -223 45 0 1 62 0
138 -3 142 -5 175 8 49 19 -123 12 -225 29 -284 50 -68 23 -63 23 -60 2z"/>
<path d="M3260 1228 c-96 -4 -224 -15 -285 -24 -60 -9 -166 -22 -235 -30 -208
-24 -234 -34 -80 -29 74 2 124 1 110 -1 -84 -17 -129 -36 -123 -51 10 -25 310
-12 473 20 69 13 175 34 235 46 158 31 155 30 155 42 0 6 -8 8 -17 5 -29 -8
-131 -24 -233 -36 -52 -7 -117 -15 -143 -20 -27 -4 -45 -4 -40 1 4 4 69 17
143 28 74 11 178 29 230 40 89 18 92 19 40 19 -30 -1 -134 -5 -230 -10z"/>
<path d="M3550 1153 c-14 -2 -77 -12 -140 -23 -159 -27 -335 -50 -389 -50 -55
0 -82 -13 -64 -31 8 -8 42 -12 88 -12 73 1 185 22 417 79 53 13 108 24 122 24
14 0 26 5 26 10 0 10 -13 11 -60 3z"/>
<path d="M3768 2064 c-3 -3 0 -17 8 -32 23 -44 18 -55 -16 -37 -16 9 -30 13
-30 10 0 -2 20 -35 45 -72 25 -37 45 -75 45 -86 0 -10 5 -17 13 -15 7 3 14 31
17 74 l6 69 38 -79 c28 -57 40 -75 47 -65 30 48 -16 156 -88 203 -42 27 -76
39 -85 30z"/>
<path d="M5766 2322 c-3 -22 -17 -65 -31 -96 -29 -65 -26 -69 51 -64 46 3 50
6 67 41 24 48 36 162 17 155 -8 -2 -21 -27 -31 -55 -40 -119 -65 -127 -54 -18
7 79 -7 107 -19 37z"/>
<path d="M5713 1859 c-37 -9 -81 -22 -97 -28 -47 -18 -22 -24 28 -7 59 20 92
21 51 1 -16 -8 -37 -19 -45 -24 -8 -5 -26 -14 -40 -20 l-25 -12 25 6 c149 33
227 30 296 -10 51 -30 54 -30 54 -6 0 23 -35 50 -65 52 -11 1 -4 4 15 8 l35 6
-42 22 c-56 30 -109 33 -190 12z"/>
<path d="M5927 1543 c-23 -23 -39 -29 -104 -35 -43 -3 -116 -7 -163 -8 -99 -2
-76 -17 30 -20 71 -2 57 -13 -32 -25 -32 -4 -48 -11 -48 -21 0 -11 24 -14 131
-14 77 0 139 5 152 11 30 16 67 50 67 63 0 6 -5 5 -12 -2 -28 -28 -37 -11 -13
24 39 57 35 69 -8 27z"/>
</g>
</svg>
